<svg width="544" height="72" viewBox="0 0 544 72" fill="none" xmlns="http://www.w3.org/2000/svg">
<path d="M22.5 0C10.0736 0 0 10.0736 0 22.5C0 34.9264 10.0736 45 22.5 45H57.5C59.9852 45 62 47.0148 62 49.5C62 51.9852 59.9852 54 57.5 54H2.5V72H57.5C69.9264 72 80 61.9264 80 49.5C80 37.0736 69.9264 27 57.5 27H22.5C20.0148 27 18 24.9852 18 22.5C18 20.0148 20.0148 18 22.5 18H77.5V0H22.5Z" fill="black"/>
<path fill-rule="evenodd" clip-rule="evenodd" d="M161.5 0V72H179.5V48H199.5L211.5 72H231.5L218.028 45.0554C225.461 40.977 230.5 33.077 230.5 24C230.5 10.7452 219.755 0 206.5 0H161.5ZM212.5 24C212.5 20.6863 209.814 18 206.5 18H179.5V30H206.5C209.814 30 212.5 27.3137 212.5 24Z" fill="black"/>
<path d="M83.5 0V18H122.5L110.5 28V72H128.5V18H155.5V0H83.5Z" fill="black"/>
<path d="M248.5 54L265.5 20L291.5 72H311.5L275.5 0H255.5L228.5 54L237.5 72H285.5L276.5 54H248.5Z" fill="black"/>
<path d="M335.5 18H362.5V0H290.5V18H329.5L317.5 28V72H335.5V18Z" fill="black"/>
<path d="M445.5 0V48C445.5 61.2548 434.755 72 421.5 72H392.5C379.245 72 368.5 61.2548 368.5 48V0H386.5V48C386.5 51.3137 389.186 54 392.5 54H421.5C424.814 54 427.5 51.3137 427.5 48V0H445.5Z" fill="black"/>
<path d="M469.5 36L487.5 72H507.5L525.5 36V72H543.5V0H523.5L497.5 52L471.5 0H451.5V72H469.5V36Z" fill="black"/>
</svg>
